<svg width="97" height="42" viewBox="0 0 97 42" fill="none" xmlns="http://www.w3.org/2000/svg">
<g clip-path="url(#clip0_265_3638)">
<path d="M79.3063 41.3824H77.62C77.4695 41.3811 77.3256 41.3208 77.2192 41.2144C77.1128 41.108 77.0525 40.9641 77.0511 40.8136V25.1134C77.0511 23.7517 77.5921 22.4457 78.555 21.4828C79.5179 20.5199 80.8238 19.979 82.1856 19.979H91.8654C93.2272 19.979 94.5331 20.5199 95.496 21.4828C96.4589 22.4457 96.9998 23.7517 96.9998 25.1134V25.1134V29.1102C96.9958 30.4693 96.4531 31.7714 95.4907 32.731C94.5282 33.6906 93.2245 34.2295 91.8654 34.2295H83.3081C83.1576 34.2282 83.0137 34.1678 82.9073 34.0614C82.8009 33.9551 82.7406 33.8111 82.7393 33.6607V33.6607V31.9643C82.7392 31.8139 82.7983 31.6694 82.9038 31.5621C83.0092 31.4547 83.1526 31.3931 83.303 31.3905H93.0131C93.3148 31.3905 93.6042 31.2706 93.8175 31.0573C94.0309 30.8439 94.1507 30.5546 94.1507 30.2528V23.9708C94.1507 23.669 94.0309 23.3797 93.8175 23.1663C93.6042 22.953 93.3148 22.8331 93.0131 22.8331H81.0177C80.716 22.8331 80.4267 22.953 80.2133 23.1663C80 23.3797 79.8801 23.669 79.8801 23.9708V23.9708V40.8086C79.8801 40.9608 79.8196 41.1067 79.712 41.2143C79.6044 41.322 79.4585 41.3824 79.3063 41.3824V41.3824Z" fill="#212121"/>
<path d="M12.9568 41.3824H5.13443C3.77265 41.3798 2.46748 40.8373 1.50502 39.8739C0.542564 38.9105 0.00135254 37.6048 2.26736e-05 36.243V20.5478C-0.000641324 20.4738 0.0132846 20.4003 0.0410053 20.3317C0.0687261 20.263 0.109699 20.2005 0.161583 20.1477C0.213468 20.0949 0.275249 20.0528 0.343398 20.0238C0.411547 19.9949 0.48473 19.9797 0.558767 19.979H2.2803C2.43077 19.979 2.57522 20.0381 2.68255 20.1435C2.78989 20.249 2.85151 20.3923 2.85415 20.5428V20.5428V37.3856C2.85415 37.5361 2.88387 37.6851 2.94161 37.8241C2.99935 37.963 3.08396 38.0892 3.1906 38.1954C3.29724 38.3016 3.4238 38.3856 3.56302 38.4428C3.70223 38.4999 3.85136 38.529 4.00184 38.5283H12.982C13.0574 38.527 13.1323 38.5405 13.2024 38.5681C13.2725 38.5957 13.3365 38.6369 13.3908 38.6892C13.445 38.7416 13.4884 38.8041 13.5184 38.8732C13.5485 38.9424 13.5646 39.0167 13.5659 39.0921V39.0921V40.8035C13.5659 40.9557 13.5055 41.1017 13.3979 41.2093C13.2902 41.3169 13.1443 41.3774 12.9921 41.3774L12.9568 41.3824Z" fill="#212121"/>
<path d="M67.608 41.3824H50.8558C50.1297 41.3835 49.4123 41.2253 48.754 40.9192C48.0956 40.6131 47.5124 40.1664 47.0452 39.6106L33.4844 23.5882C33.2824 23.3517 33.0315 23.1618 32.7491 23.0314C32.4667 22.9011 32.1594 22.8334 31.8484 22.8331H20.3765C20.0744 22.8331 19.7845 22.9528 19.5703 23.166C19.3562 23.3792 19.2352 23.6686 19.2339 23.9708V37.3856C19.2339 37.6887 19.3543 37.9793 19.5686 38.1936C19.7829 38.4079 20.0735 38.5283 20.3765 38.5283H32.3166C32.4843 38.5288 32.65 38.4926 32.8022 38.4221C32.9544 38.3517 33.0893 38.2488 33.1975 38.1206L35.6791 35.1859C35.776 35.0706 35.9147 34.9984 36.0647 34.9852C36.2147 34.972 36.3639 35.0188 36.4794 35.1154L37.7832 36.243C37.8985 36.3399 37.9707 36.4786 37.9839 36.6286C37.9971 36.7786 37.9503 36.9278 37.8537 37.0434L35.7093 39.5602C35.2271 40.1303 34.6265 40.5886 33.9494 40.9033C33.2722 41.218 32.5347 41.3815 31.788 41.3824H21.5192C20.1561 41.3824 18.8489 40.841 17.8851 39.8771C16.9212 38.9133 16.3798 37.6061 16.3798 36.243V36.243V25.1134C16.3824 23.7516 16.9249 22.4465 17.8883 21.484C18.8517 20.5215 20.1574 19.9803 21.5192 19.979H31.8484C32.5746 19.9787 33.2921 20.1366 33.951 20.4417C34.61 20.7468 35.1945 21.1919 35.664 21.7458L49.2198 37.7531C49.4207 37.9913 49.6712 38.1827 49.9538 38.314C50.2363 38.4453 50.5442 38.5133 50.8558 38.5132H68.7507C69.0529 38.5119 69.3422 38.3909 69.5554 38.1768C69.7686 37.9626 69.8883 37.6727 69.8883 37.3705V23.9708C69.8883 23.669 69.7685 23.3797 69.5551 23.1663C69.3418 22.953 69.0524 22.8331 68.7507 22.8331H50.3927C50.2269 22.8324 50.063 22.8681 49.9125 22.9377C49.762 23.0073 49.6287 23.1091 49.5218 23.2358L47.0352 26.1755C46.9383 26.2908 46.7996 26.363 46.6496 26.3762C46.4995 26.3895 46.3504 26.3426 46.2348 26.246V26.246L44.926 25.1335C44.8104 25.0358 44.7381 24.8962 44.7249 24.7454C44.7117 24.5945 44.7587 24.4445 44.8556 24.3281L46.9999 21.8113C47.4824 21.2418 48.0831 20.7843 48.7603 20.4705C49.4375 20.1567 50.1749 19.9941 50.9212 19.9941H67.608C68.9698 19.9941 70.2757 20.5351 71.2386 21.4979C72.2015 22.4608 72.7424 23.7668 72.7424 25.1285V25.1285V36.243C72.7411 37.6048 72.1999 38.9105 71.2374 39.8739C70.275 40.8373 68.9698 41.3798 67.608 41.3824V41.3824Z" fill="#212121"/>
<path d="M69.0326 14.2706H60.1884C60.1131 14.2681 60.0415 14.2371 59.9883 14.1838C59.935 14.1305 59.9039 14.059 59.9014 13.9837V11.7034C59.9027 11.6277 59.9334 11.5555 59.9869 11.502C60.0404 11.4484 60.1127 11.4178 60.1884 11.4165H69.3195C69.47 11.4152 69.6139 11.3548 69.7203 11.2484C69.8267 11.1421 69.887 10.9981 69.8884 10.8477V10.8477V9.13622C69.889 9.06086 69.8748 8.98611 69.8466 8.91623C69.8184 8.84636 69.7767 8.78272 69.7238 8.72897C69.671 8.67521 69.6081 8.63239 69.5388 8.60294C69.4694 8.5735 69.3949 8.558 69.3195 8.55734H62.8965C61.9126 8.55734 60.969 8.16648 60.2732 7.47075C59.5775 6.77502 59.1866 5.8314 59.1866 4.84748V3.70986C59.1866 2.72594 59.5775 1.78233 60.2732 1.08659C60.969 0.390859 61.9126 0 62.8965 0L71.031 0C71.1063 0.00251202 71.1778 0.0335476 71.2311 0.0868213C71.2844 0.140095 71.3154 0.211624 71.3179 0.286923V2.5672C71.3166 2.64289 71.286 2.71513 71.2325 2.76866C71.1789 2.82219 71.1067 2.85283 71.031 2.85413H62.6146C62.4633 2.85412 62.3181 2.91389 62.2106 3.02042C62.1031 3.12695 62.0421 3.27162 62.0408 3.42294V5.13944C62.0421 5.29076 62.1031 5.43543 62.2106 5.54196C62.3181 5.64849 62.4633 5.70826 62.6146 5.70825H69.0326C70.0165 5.70825 70.9602 6.09911 71.6559 6.79484C72.3516 7.49058 72.7425 8.43419 72.7425 9.41811V10.5708C72.7425 11.5547 72.3516 12.4984 71.6559 13.1941C70.9602 13.8898 70.0165 14.2807 69.0326 14.2807V14.2706Z" fill="#212121"/>
<path d="M43.2649 14.0945L47.0453 3.23672C47.0827 3.12397 47.1551 3.0261 47.252 2.9573C47.3488 2.88851 47.4651 2.85238 47.5839 2.85415H50.438C50.5564 2.85391 50.672 2.89064 50.7685 2.95922C50.8651 3.0278 50.9378 3.12481 50.9766 3.23672L54.772 14.0945C54.7919 14.1506 54.8287 14.1992 54.8774 14.2335C54.9261 14.2678 54.9843 14.286 55.0439 14.2858H57.4852C57.5613 14.2858 57.6343 14.2555 57.6881 14.2017C57.7419 14.1479 57.7721 14.0749 57.7721 13.9988C57.777 13.9671 57.777 13.9349 57.7721 13.9032L53.7653 2.48669C53.5091 1.75752 53.0321 1.12626 52.4006 0.680625C51.7691 0.23499 51.0146 -0.00289374 50.2417 2.6569e-05H47.7953C47.0224 -0.00289374 46.2678 0.23499 45.6364 0.680625C45.0049 1.12626 44.5279 1.75752 44.2717 2.48669L40.2447 13.8881C40.2204 13.9602 40.2252 14.039 40.2581 14.1076C40.291 14.1763 40.3494 14.2294 40.4209 14.2556C40.4525 14.2608 40.4848 14.2608 40.5165 14.2556H42.9327C42.9982 14.2721 43.0674 14.265 43.1282 14.2355C43.1889 14.2061 43.2374 14.1561 43.2649 14.0945V14.0945Z" fill="#212121"/>
<path d="M24.3483 14.0945L28.1638 3.23677C28.2005 3.13036 28.2679 3.03721 28.3575 2.96911C28.4471 2.90101 28.5549 2.86102 28.6672 2.85421H31.5415C31.6599 2.85397 31.7755 2.8907 31.872 2.95928C31.9686 3.02786 32.0413 3.12487 32.0801 3.23677L35.8906 14.0945C35.9096 14.1503 35.9455 14.1987 35.9933 14.233C36.0412 14.2673 36.0985 14.2858 36.1574 14.2858H38.5786C38.6238 14.2842 38.668 14.272 38.7077 14.2504C38.7474 14.2287 38.7816 14.1981 38.8074 14.1611C38.8333 14.124 38.8502 14.0814 38.8568 14.0366C38.8634 13.9919 38.8595 13.9462 38.8454 13.9032L34.8184 2.50185C34.5689 1.77511 34.0997 1.14393 33.4756 0.695702C32.8515 0.247476 32.1035 0.00438204 31.3351 8.27323e-05H28.8686C28.0952 -0.00508454 27.3396 0.231919 26.7076 0.677863C26.0757 1.12381 25.5992 1.75633 25.345 2.48675L21.3532 13.8881C21.338 13.9311 21.3333 13.9771 21.3394 14.0223C21.3455 14.0675 21.3623 14.1105 21.3884 14.1479C21.4144 14.1853 21.4491 14.216 21.4893 14.2373C21.5296 14.2587 21.5744 14.2701 21.62 14.2707H24.0412C24.1049 14.2818 24.1705 14.2703 24.2266 14.2381C24.2827 14.2059 24.3257 14.1551 24.3483 14.0945V14.0945Z" fill="#212121"/>
<path d="M14.5124 4.01607e-05H12.8009C12.3766 0.000121887 11.9606 0.118363 11.5996 0.341517C11.2387 0.564672 10.947 0.883923 10.7572 1.26351L9.86124 3.05551C9.83653 3.10067 9.80012 3.13834 9.75584 3.16458C9.71155 3.19083 9.66103 3.20468 9.60955 3.20468C9.55808 3.20468 9.50755 3.19083 9.46327 3.16458C9.41899 3.13834 9.38258 3.10067 9.35787 3.05551L8.46186 1.26351C8.27211 0.883923 7.98042 0.564672 7.61946 0.341517C7.2585 0.118363 6.84254 0.000121887 6.41817 4.01607e-05H4.7067C4.1826 0.00510152 3.67624 0.190555 3.27285 0.525189C2.86945 0.859823 2.59365 1.32321 2.49186 1.83735L0.070634 13.9183C0.0633144 13.9553 0.0633703 13.9934 0.0707985 14.0304C0.0782266 14.0674 0.092881 14.1026 0.113922 14.1339C0.134964 14.1653 0.161979 14.1921 0.19342 14.213C0.224862 14.2339 0.260112 14.2483 0.297152 14.2556H2.59757C2.66412 14.2556 2.72862 14.2326 2.78005 14.1904C2.83147 14.1481 2.86661 14.0893 2.87946 14.024L4.93322 3.07565C4.94606 3.01035 4.9812 2.95155 5.03263 2.90931C5.08405 2.86707 5.14856 2.84401 5.21511 2.8441H5.5121C5.56513 2.84384 5.61719 2.85829 5.66251 2.88584C5.70783 2.91338 5.74463 2.95295 5.76882 3.00014L7.32927 5.58748C7.48293 5.83957 7.69883 6.04791 7.95624 6.19248C8.21364 6.33704 8.5039 6.41299 8.79912 6.41301H10.4351C10.7296 6.4131 11.0192 6.33716 11.2759 6.19253C11.5325 6.04791 11.7474 5.83951 11.8999 5.58748L13.4604 3.02028C13.4845 2.97308 13.5213 2.93352 13.5667 2.90597C13.612 2.87842 13.664 2.86398 13.7171 2.86423H14.0141C14.0806 2.86415 14.1451 2.8872 14.1965 2.92944C14.248 2.97168 14.2831 3.03049 14.296 3.09578L16.3497 14.0492C16.3626 14.1145 16.3977 14.1733 16.4491 14.2155C16.5006 14.2578 16.5651 14.2808 16.6316 14.2807H18.8968C18.9729 14.2807 19.0459 14.2505 19.0997 14.1967C19.1535 14.1429 19.1837 14.0699 19.1837 13.9938C19.1862 13.9754 19.1862 13.9568 19.1837 13.9384L16.7625 1.85749C16.6646 1.33327 16.3856 0.860109 15.9744 0.520616C15.5631 0.181123 15.0457 -0.00312699 14.5124 4.01607e-05V4.01607e-05Z" fill="#212121"/>
</g>
<defs>
<clipPath id="clip0_265_3638">
<rect width="97" height="41.3823" fill="white"/>
</clipPath>
</defs>
</svg>
